<mxfile host="Electron" agent="Mozilla/5.0 (Windows NT 10.0; Win64; x64) AppleWebKit/537.36 (KHTML, like Gecko) draw.io/28.2.5 Chrome/138.0.7204.251 Electron/37.6.1 Safari/537.36" version="28.2.5">
  <diagram name="Side-1" id="fXFDWMzpkF1zqOqWwmxB">
    <mxGraphModel dx="1426" dy="841" grid="1" gridSize="10" guides="1" tooltips="1" connect="1" arrows="1" fold="1" page="1" pageScale="1" pageWidth="827" pageHeight="1169" math="0" shadow="0">
      <root>
        <mxCell id="0" />
        <mxCell id="1" parent="0" />
        <mxCell id="O5TQjMn34plPdjG0fmoY-3" value="" style="edgeStyle=orthogonalEdgeStyle;rounded=0;orthogonalLoop=1;jettySize=auto;html=1;" edge="1" parent="1" source="O5TQjMn34plPdjG0fmoY-1" target="O5TQjMn34plPdjG0fmoY-2">
          <mxGeometry relative="1" as="geometry" />
        </mxCell>
        <mxCell id="O5TQjMn34plPdjG0fmoY-1" value="Start" style="rounded=1;whiteSpace=wrap;html=1;" vertex="1" parent="1">
          <mxGeometry x="371" y="10" width="86" height="40" as="geometry" />
        </mxCell>
        <mxCell id="O5TQjMn34plPdjG0fmoY-6" value="" style="edgeStyle=orthogonalEdgeStyle;rounded=0;orthogonalLoop=1;jettySize=auto;html=1;" edge="1" parent="1" source="O5TQjMn34plPdjG0fmoY-2" target="O5TQjMn34plPdjG0fmoY-5">
          <mxGeometry relative="1" as="geometry" />
        </mxCell>
        <mxCell id="O5TQjMn34plPdjG0fmoY-7" value="No" style="edgeLabel;html=1;align=center;verticalAlign=middle;resizable=0;points=[];" vertex="1" connectable="0" parent="O5TQjMn34plPdjG0fmoY-6">
          <mxGeometry x="-0.0455" y="-1" relative="1" as="geometry">
            <mxPoint as="offset" />
          </mxGeometry>
        </mxCell>
        <mxCell id="O5TQjMn34plPdjG0fmoY-9" value="" style="edgeStyle=orthogonalEdgeStyle;rounded=0;orthogonalLoop=1;jettySize=auto;html=1;" edge="1" parent="1" source="O5TQjMn34plPdjG0fmoY-2" target="O5TQjMn34plPdjG0fmoY-8">
          <mxGeometry relative="1" as="geometry" />
        </mxCell>
        <mxCell id="O5TQjMn34plPdjG0fmoY-2" value="Welcome!&amp;nbsp;&lt;br&gt;Would you like to start?" style="rounded=0;whiteSpace=wrap;html=1;" vertex="1" parent="1">
          <mxGeometry x="354" y="100" width="120" height="60" as="geometry" />
        </mxCell>
        <mxCell id="O5TQjMn34plPdjG0fmoY-5" value="End" style="rounded=1;whiteSpace=wrap;html=1;" vertex="1" parent="1">
          <mxGeometry x="230" y="105" width="80" height="50" as="geometry" />
        </mxCell>
        <mxCell id="O5TQjMn34plPdjG0fmoY-11" value="" style="edgeStyle=orthogonalEdgeStyle;rounded=0;orthogonalLoop=1;jettySize=auto;html=1;" edge="1" parent="1" source="O5TQjMn34plPdjG0fmoY-8" target="O5TQjMn34plPdjG0fmoY-10">
          <mxGeometry relative="1" as="geometry" />
        </mxCell>
        <mxCell id="O5TQjMn34plPdjG0fmoY-8" value="Generate Board" style="rounded=0;whiteSpace=wrap;html=1;" vertex="1" parent="1">
          <mxGeometry x="354" y="210" width="120" height="60" as="geometry" />
        </mxCell>
        <mxCell id="O5TQjMn34plPdjG0fmoY-13" value="" style="edgeStyle=orthogonalEdgeStyle;rounded=0;orthogonalLoop=1;jettySize=auto;html=1;" edge="1" parent="1" source="O5TQjMn34plPdjG0fmoY-10" target="O5TQjMn34plPdjG0fmoY-12">
          <mxGeometry relative="1" as="geometry" />
        </mxCell>
        <mxCell id="O5TQjMn34plPdjG0fmoY-10" value="Start position = 0.0" style="rounded=0;whiteSpace=wrap;html=1;" vertex="1" parent="1">
          <mxGeometry x="354" y="310" width="120" height="60" as="geometry" />
        </mxCell>
        <mxCell id="O5TQjMn34plPdjG0fmoY-15" value="" style="edgeStyle=orthogonalEdgeStyle;rounded=0;orthogonalLoop=1;jettySize=auto;html=1;" edge="1" parent="1" source="O5TQjMn34plPdjG0fmoY-12" target="O5TQjMn34plPdjG0fmoY-14">
          <mxGeometry relative="1" as="geometry" />
        </mxCell>
        <mxCell id="O5TQjMn34plPdjG0fmoY-22" value="No" style="edgeLabel;html=1;align=center;verticalAlign=middle;resizable=0;points=[];" vertex="1" connectable="0" parent="O5TQjMn34plPdjG0fmoY-15">
          <mxGeometry x="0.1" y="-1" relative="1" as="geometry">
            <mxPoint as="offset" />
          </mxGeometry>
        </mxCell>
        <mxCell id="O5TQjMn34plPdjG0fmoY-23" value="" style="edgeStyle=orthogonalEdgeStyle;rounded=0;orthogonalLoop=1;jettySize=auto;html=1;" edge="1" parent="1" source="O5TQjMn34plPdjG0fmoY-12" target="O5TQjMn34plPdjG0fmoY-21">
          <mxGeometry relative="1" as="geometry" />
        </mxCell>
        <mxCell id="O5TQjMn34plPdjG0fmoY-24" value="Yes" style="edgeLabel;html=1;align=center;verticalAlign=middle;resizable=0;points=[];" vertex="1" connectable="0" parent="O5TQjMn34plPdjG0fmoY-23">
          <mxGeometry x="-0.28" y="-3" relative="1" as="geometry">
            <mxPoint as="offset" />
          </mxGeometry>
        </mxCell>
        <mxCell id="O5TQjMn34plPdjG0fmoY-12" value="Are there any valid moves available?" style="rounded=0;whiteSpace=wrap;html=1;" vertex="1" parent="1">
          <mxGeometry x="354" y="420" width="120" height="60" as="geometry" />
        </mxCell>
        <mxCell id="O5TQjMn34plPdjG0fmoY-17" value="" style="edgeStyle=orthogonalEdgeStyle;rounded=0;orthogonalLoop=1;jettySize=auto;html=1;" edge="1" parent="1" source="O5TQjMn34plPdjG0fmoY-14" target="O5TQjMn34plPdjG0fmoY-16">
          <mxGeometry relative="1" as="geometry" />
        </mxCell>
        <mxCell id="O5TQjMn34plPdjG0fmoY-14" value="Print # of moves completed" style="rounded=0;whiteSpace=wrap;html=1;" vertex="1" parent="1">
          <mxGeometry x="154" y="420" width="120" height="60" as="geometry" />
        </mxCell>
        <mxCell id="O5TQjMn34plPdjG0fmoY-19" value="" style="edgeStyle=orthogonalEdgeStyle;rounded=0;orthogonalLoop=1;jettySize=auto;html=1;" edge="1" parent="1" source="O5TQjMn34plPdjG0fmoY-16" target="O5TQjMn34plPdjG0fmoY-18">
          <mxGeometry relative="1" as="geometry" />
        </mxCell>
        <mxCell id="O5TQjMn34plPdjG0fmoY-16" value="Calculate nr of moves possible from each square" style="whiteSpace=wrap;html=1;rounded=0;" vertex="1" parent="1">
          <mxGeometry x="154" y="525" width="120" height="60" as="geometry" />
        </mxCell>
        <mxCell id="O5TQjMn34plPdjG0fmoY-20" style="edgeStyle=orthogonalEdgeStyle;rounded=0;orthogonalLoop=1;jettySize=auto;html=1;exitX=0;exitY=0.5;exitDx=0;exitDy=0;entryX=0;entryY=0.5;entryDx=0;entryDy=0;" edge="1" parent="1" source="O5TQjMn34plPdjG0fmoY-18" target="O5TQjMn34plPdjG0fmoY-5">
          <mxGeometry relative="1" as="geometry" />
        </mxCell>
        <mxCell id="O5TQjMn34plPdjG0fmoY-18" value="Print in matrix" style="whiteSpace=wrap;html=1;rounded=0;" vertex="1" parent="1">
          <mxGeometry x="154" y="630" width="120" height="60" as="geometry" />
        </mxCell>
        <mxCell id="O5TQjMn34plPdjG0fmoY-21" value="Move to new position" style="rounded=0;whiteSpace=wrap;html=1;" vertex="1" parent="1">
          <mxGeometry x="354" y="530" width="120" height="60" as="geometry" />
        </mxCell>
        <mxCell id="O5TQjMn34plPdjG0fmoY-25" style="edgeStyle=orthogonalEdgeStyle;rounded=0;orthogonalLoop=1;jettySize=auto;html=1;exitX=1;exitY=0.5;exitDx=0;exitDy=0;entryX=1.008;entryY=0.367;entryDx=0;entryDy=0;entryPerimeter=0;" edge="1" parent="1" source="O5TQjMn34plPdjG0fmoY-21" target="O5TQjMn34plPdjG0fmoY-12">
          <mxGeometry relative="1" as="geometry" />
        </mxCell>
      </root>
    </mxGraphModel>
  </diagram>
</mxfile>
